<svg class="header-icon" clip-rule="evenodd" fill-rule="evenodd" stroke-linecap="round" stroke-linejoin="round" stroke-miterlimit="1.5" viewBox="0 0 501 500" xmlns="http://www.w3.org/2000/svg" xmlns:xlink="http://www.w3.org/1999/xlink">
	<clipPath id="a">
		<path clip-rule="evenodd" d="m.832 0h500v500h-500z" />
	</clipPath>
	<path d="m.832 0h500v500h-500z" fill="none" />
	<g clip-path="url(#a)">
		<path d="m250.832 0c137.978 0 250 112.021 250 250s-112.022 250-250 250c-137.979 0-250-112.021-250-250s112.021-250 250-250zm0 40c115.902 0 210 94.098 210 210s-94.098 210-210 210c-115.903 0-210-94.098-210-210s94.097-210 210-210z" fill="#ebebeb" />
		<path d="m424.428 144.884-173.596 178.602-173.597-178.602" fill="none" stroke="#ebebeb" stroke-width="40" />
	</g>
</svg>