<svg clip-rule="evenodd" fill-rule="evenodd" stroke-linejoin="round" stroke-miterlimit="2" viewBox="0 0 378 369" xmlns="http://www.w3.org/2000/svg"><g fill="#181717"><path d="m188.713 0c-104.21 0-188.713 84.484-188.713 188.713 0 83.374 54.072 154.112 129.053 179.065 9.431 1.747 12.894-4.094 12.894-9.078 0-4.5-.175-19.366-.256-35.134-52.5 11.415-63.578-22.266-63.578-22.266-8.585-21.809-20.954-27.613-20.954-27.613-17.122-11.712 1.291-11.471 1.291-11.471 18.95 1.331 28.928 19.45 28.928 19.45 16.831 28.846 44.147 20.506 54.916 15.684 1.693-12.194 6.584-20.522 11.981-25.234-41.916-4.769-85.978-20.954-85.978-93.263 0-20.6 7.372-37.437 19.444-50.653-1.96-4.753-8.419-23.947 1.828-49.941 0 0 15.847-5.068 51.909 19.347 15.053-4.181 31.197-6.278 47.235-6.353 16.037.075 32.193 2.172 47.274 6.353 36.019-24.415 51.844-19.347 51.844-19.347 10.272 25.994 3.81 45.188 1.85 49.941 12.1 13.216 19.422 30.053 19.422 50.653 0 72.484-44.147 88.441-86.169 93.113 6.769 5.856 12.8 17.34 12.8 34.946 0 25.25-.218 45.572-.218 51.788 0 5.022 3.396 10.906 12.962 9.053 74.941-24.981 128.944-95.691 128.944-179.04 0-104.229-84.491-188.713-188.709-188.713z"/><g fill-rule="nonzero"><path d="m71.475 270.947c-.416.94-1.891 1.222-3.234.578-1.369-.619-2.138-1.897-1.694-2.838.406-.962 1.884-1.231 3.25-.587 1.372.616 2.153 1.906 1.678 2.847z"/><path d="m79.119 279.475c-.9.831-2.66.444-3.853-.875-1.235-1.316-1.466-3.075-.554-3.922.929-.831 2.635-.441 3.872.875 1.235 1.331 1.475 3.075.535 3.922z"/><path d="m86.559 290.341c-1.156.806-3.047.053-4.215-1.625-1.157-1.679-1.157-3.694.025-4.5 1.172-.807 3.034-.079 4.218 1.584 1.154 1.706 1.154 3.719-.028 4.541z"/><path d="m96.753 300.841c-1.034 1.14-3.237.834-4.85-.722-1.65-1.522-2.109-3.682-1.072-4.822 1.047-1.144 3.263-.822 4.888.722 1.637 1.518 2.137 3.693 1.034 4.822z"/><path d="m110.816 306.937c-.457 1.479-2.579 2.15-4.716 1.522-2.134-.647-3.531-2.378-3.1-3.872.444-1.487 2.575-2.187 4.728-1.515 2.131.644 3.531 2.362 3.088 3.865z"/><path d="m126.259 308.069c.053 1.556-1.759 2.847-4.003 2.875-2.256.05-4.081-1.21-4.106-2.741 0-1.572 1.772-2.85 4.028-2.887 2.244-.044 4.081 1.206 4.081 2.753z"/><path d="m140.631 305.622c.269 1.519-1.29 3.078-3.519 3.494-2.19.4-4.218-.538-4.496-2.044-.272-1.556 1.315-3.116 3.503-3.519 2.231-.387 4.228.525 4.512 2.069z"/></g></g></svg>