<svg
	clip-rule="evenodd"
	fill-rule="evenodd"
	stroke-linejoin="round"
	stroke-miterlimit="2"
	viewBox="0 0 500 500"
	xmlns="http://www.w3.org/2000/svg"
	xmlns:xlink="http://www.w3.org/1999/xlink">
	<clipPath id="a">
		<path clip-rule="evenodd" d="m0 0h500v500h-500z" />
	</clipPath>
	<path
		d="m0 0h500v500h-500z"
		fill="none" />
	<g clip-path="url(#a)" fill="#fff">
		<path
			d="m250 0c137.979 0 250 112.021 250 250s-112.021 250-250 250-250-112.021-250-250 112.021-250 250-250zm0 40c115.902 0 210 94.098 210 210s-94.098 210-210 210-210-94.098-210-210 94.098-210 210-210z" />
		<path
			d="m140.014 223.591h-29.465c-6.792 0-12.844-4.288-15.095-10.696-2.252-6.408-.212-13.539 5.087-17.787 43.193-34.626 113.525-91.008 139.451-111.792 5.848-4.688 14.168-4.688 20.016 0l63.256 50.71v-10.193c0-8.831 7.17-16 16-16h4.722c8.831 0 16 7.169 16 16v39.631l39.473 31.644c5.299 4.248 7.339 11.379 5.087 17.787-2.251 6.408-8.303 10.696-15.095 10.696h-29.465v157.99c0 8.831-7.169 16-16 16h-187.972c-8.831 0-16-7.169-16-16z" />
	</g>
</svg>