<svg clip-rule="evenodd" fill-rule="evenodd" stroke-linecap="round" stroke-linejoin="round" stroke-miterlimit="1.5" viewBox="0 0 2088 2084" xmlns="http://www.w3.org/2000/svg" xmlns:xlink="http://www.w3.org/1999/xlink">
    <clipPath id="a">
        <path clip-rule="evenodd" d="m3.465 0h2083.33v2083.33h-2083.33z" />
    </clipPath>
    <path d="m3.465 0h2083.33v2083.33h-2083.33z" fill="none" />
    <g clip-path="url(#a)">
        <path d="m1045.13 0c574.911 0 1041.67 466.755 1041.67 1041.67 0 574.911-466.755 1041.67-1041.67 1041.67-574.912 0-1041.67-466.755-1041.67-1041.67 0-574.912 466.755-1041.67 1041.67-1041.67zm0 166.667c482.925 0 875 392.074 875 875 0 482.925-392.075 875-875 875-482.926 0-875-392.075-875-875 0-482.926 392.074-875 875-875z" fill="#fff" />
        <path d="m1768.45 603.681-723.319 509.014-723.319-509.014" fill="none" stroke="#fff" stroke-width="166.67" />
    </g>
</svg>