<?xml version="1.0" encoding="UTF-8" standalone="no"?>
<!DOCTYPE svg PUBLIC "-//W3C//DTD SVG 1.1//EN" "http://www.w3.org/Graphics/SVG/1.1/DTD/svg11.dtd">
<svg width="100%" height="100%" viewBox="0 0 32 46" version="1.1" xmlns="http://www.w3.org/2000/svg" xmlns:xlink="http://www.w3.org/1999/xlink" xml:space="preserve" style="fill-rule:evenodd;clip-rule:evenodd;stroke-linejoin:round;stroke-miterlimit:2;">
    <g transform="matrix(1,0,0,1,-12.126,0)">
        <path d="M38.252,45.975C35.489,45.975 33.252,43.737 33.252,40.975L33.252,5C33.252,2.238 35.489,0 38.252,0C41.014,0 43.252,2.238 43.252,5L43.252,40.975C43.252,43.736 41.013,45.975 38.252,45.975Z" style="fill-rule:nonzero;"/>
    </g>
    <g transform="matrix(1,0,0,1,-32.378,0)">
        <path d="M38.252,45.975C35.489,45.975 33.252,43.737 33.252,40.975L33.252,5C33.252,2.238 35.489,0 38.252,0C41.014,0 43.252,2.238 43.252,5L43.252,40.975C43.252,43.736 41.013,45.975 38.252,45.975Z" style="fill-rule:nonzero;"/>
    </g>
</svg>
