<?xml version="1.0" encoding="UTF-8" standalone="no"?>
<!DOCTYPE svg PUBLIC "-//W3C//DTD SVG 1.1//EN" "http://www.w3.org/Graphics/SVG/1.1/DTD/svg11.dtd">
<svg width="100%" height="100%" viewBox="0 0 46 46" version="1.1" xmlns="http://www.w3.org/2000/svg" xmlns:xlink="http://www.w3.org/1999/xlink" xml:space="preserve" xmlns:serif="http://www.serif.com/" style="fill-rule:evenodd;clip-rule:evenodd;stroke-linejoin:round;stroke-miterlimit:2;">
    <path d="M9.629,44.68C8.475,45.84 6.734,46.19 5.222,45.565C3.709,44.942 2.722,43.465 2.722,41.83L2.722,4.043C2.722,2.406 3.709,0.931 5.222,0.307C6.735,-0.318 8.475,0.032 9.629,1.192L27.491,19.143C29.579,21.241 29.579,24.631 27.491,26.728L9.629,44.68Z" style="fill-rule:nonzero;"/>
    <path d="M38.252,45.975C35.489,45.975 33.252,43.737 33.252,40.975L33.252,5C33.252,2.238 35.489,0 38.252,0C41.014,0 43.252,2.238 43.252,5L43.252,40.975C43.252,43.736 41.013,45.975 38.252,45.975Z" style="fill-rule:nonzero;"/>
</svg>
